<svg width="23" height="19" viewBox="0 0 23 19" fill="none" xmlns="http://www.w3.org/2000/svg">
<path opacity="0.1" d="M1.27952e-06 4.36396C1.393e-06 3.06596 0.425926 2.01413 1.27778 1.20848C2.12963 0.402826 3.24177 -1.72732e-06 4.6142 -1.60734e-06C5.9393 -1.49149e-06 7.05144 0.447585 7.95062 1.34275C8.84979 2.28268 9.29938 3.60306 9.29938 5.30389C9.29938 7.00471 8.70782 9.0636 7.52469 11.4806C6.29424 13.8975 4.47222 16.404 2.05864 19L0.425923 17.6572C2.03498 15.8669 3.14712 14.2332 3.76235 12.7562C4.37757 11.3239 4.73251 10.0035 4.82716 8.79505L4.6142 8.79505C3.24177 8.79505 2.12963 8.39223 1.27778 7.58657C0.425925 6.78092 1.16214e-06 5.70671 1.27952e-06 4.36396ZM13.7006 4.36396C13.7006 3.06596 14.1265 2.01413 14.9784 1.20848C15.8302 0.402828 16.9424 -5.29573e-07 18.3148 -4.09592e-07C19.6399 -2.93748e-07 20.7521 0.447586 21.6512 1.34276C22.5504 2.28269 23 3.60306 23 5.30389C23 7.00471 22.4084 9.06361 21.2253 11.4806C19.9949 13.8975 18.1728 16.404 15.7593 19L14.1265 17.6572C15.7356 15.8669 16.8477 14.2332 17.463 12.7562C18.0782 11.3239 18.4331 10.0035 18.5278 8.79505L18.3148 8.79505C16.9424 8.79505 15.8302 8.39223 14.9784 7.58657C14.1265 6.78092 13.7006 5.70671 13.7006 4.36396Z" fill="black"/>
</svg>
