<svg width="192" height="34" viewBox="0 0 192 34" fill="none" xmlns="http://www.w3.org/2000/svg">
<path d="M42.4649 27.5238V7.50649H49.9739C51.5122 7.50649 52.8028 7.77365 53.8458 8.30797C54.8952 8.84228 55.6872 9.59163 56.2217 10.556C56.7627 11.5139 57.0332 12.6314 57.0332 13.9085C57.0332 15.1922 56.7594 16.3064 56.2119 17.2513C55.6709 18.1896 54.8724 18.9161 53.8164 19.4309C52.7605 19.9391 51.4634 20.1932 49.925 20.1932H44.5768V17.1828H49.4362C50.3357 17.1828 51.0723 17.059 51.6459 16.8114C52.2195 16.5573 52.6432 16.1891 52.9169 15.7069C53.1972 15.2182 53.3373 14.6188 53.3373 13.9085C53.3373 13.1983 53.1972 12.5923 52.9169 12.0905C52.6366 11.5823 52.2097 11.1978 51.6361 10.9372C51.0625 10.67 50.3227 10.5365 49.4166 10.5365H46.0923V27.5238H42.4649ZM52.8094 18.4535L57.7665 27.5238H53.7187L48.8495 18.4535H52.8094Z" fill="#0A84FF"/>
<path d="M67.7506 27.817C66.2449 27.817 64.9445 27.5043 63.8494 26.8787C62.7609 26.2467 61.9233 25.354 61.3366 24.2006C60.75 23.0408 60.4567 21.6757 60.4567 20.1053C60.4567 18.561 60.75 17.2056 61.3366 16.0393C61.9298 14.8664 62.7576 13.9541 63.8201 13.3025C64.8825 12.6444 66.1308 12.3153 67.5648 12.3153C68.4904 12.3153 69.3638 12.4652 70.1852 12.7649C71.013 13.0582 71.743 13.5143 72.3753 14.1333C73.0141 14.7523 73.516 15.5408 73.881 16.4986C74.246 17.45 74.4285 18.5838 74.4285 19.9V20.9849H62.1188V18.6001H71.0358C71.0293 17.9224 70.8826 17.3197 70.5958 16.7919C70.309 16.2576 69.9081 15.8373 69.3932 15.531C68.8848 15.2248 68.2916 15.0716 67.6137 15.0716C66.8902 15.0716 66.2546 15.2476 65.7071 15.5994C65.1596 15.9448 64.7326 16.4009 64.4263 16.9678C64.1264 17.5282 63.9732 18.144 63.9667 18.8151V20.897C63.9667 21.7701 64.1264 22.5195 64.4458 23.145C64.7652 23.764 65.2117 24.2397 65.7853 24.572C66.3589 24.8978 67.0303 25.0607 67.7995 25.0607C68.3144 25.0607 68.7805 24.9891 69.1976 24.8457C69.6148 24.6958 69.9766 24.4776 70.2829 24.1908C70.5893 23.9041 70.8207 23.549 70.9771 23.1255L74.2819 23.4969C74.0733 24.37 73.6757 25.1324 73.089 25.784C72.5089 26.4291 71.7658 26.9308 70.8598 27.2892C69.9538 27.6411 68.9173 27.817 67.7506 27.817Z" fill="#0A84FF"/>
<path d="M78.5242 27.5238V12.5108H81.9072V15.0619H82.0831C82.396 14.2017 82.9142 13.5306 83.6378 13.0484C84.3613 12.5597 85.2249 12.3153 86.2288 12.3153C87.2456 12.3153 88.1028 12.563 88.8002 13.0582C89.5042 13.5469 89.9996 14.2148 90.2864 15.0619H90.4428C90.7752 14.2278 91.3358 13.5632 92.1245 13.0679C92.9197 12.5662 93.8616 12.3153 94.9502 12.3153C96.3321 12.3153 97.4597 12.7519 98.3332 13.6251C99.2066 14.4982 99.6433 15.7721 99.6433 17.4467V27.5238H96.0941V17.9941C96.0941 17.0623 95.8464 16.3814 95.3511 15.9513C94.8557 15.5147 94.2495 15.2964 93.5325 15.2964C92.6786 15.2964 92.0105 15.5636 91.5281 16.0979C91.0523 16.6257 90.8143 17.3132 90.8143 18.1602V27.5238H87.3434V17.8475C87.3434 17.0721 87.1087 16.453 86.6394 15.9904C86.1766 15.5278 85.5704 15.2964 84.8208 15.2964C84.3124 15.2964 83.8496 15.4268 83.4324 15.6874C83.0153 15.9415 82.6828 16.3032 82.4351 16.7723C82.1874 17.235 82.0636 17.7758 82.0636 18.3948V27.5238H78.5242Z" fill="#0A84FF"/>
<path d="M110.984 27.817C109.478 27.817 108.178 27.5043 107.083 26.8787C105.994 26.2467 105.157 25.354 104.57 24.2006C103.983 23.0408 103.69 21.6757 103.69 20.1053C103.69 18.561 103.983 17.2056 104.57 16.0393C105.163 14.8664 105.991 13.9541 107.054 13.3025C108.116 12.6444 109.364 12.3153 110.798 12.3153C111.724 12.3153 112.597 12.4652 113.419 12.7649C114.246 13.0582 114.976 13.5143 115.609 14.1333C116.248 14.7523 116.749 15.5408 117.114 16.4986C117.479 17.45 117.662 18.5838 117.662 19.9V20.9849H105.352V18.6001H114.269C114.263 17.9224 114.116 17.3197 113.829 16.7919C113.542 16.2576 113.142 15.8373 112.627 15.531C112.118 15.2248 111.525 15.0716 110.847 15.0716C110.124 15.0716 109.488 15.2476 108.941 15.5994C108.393 15.9448 107.966 16.4009 107.66 16.9678C107.36 17.5282 107.207 18.144 107.2 18.8151V20.897C107.2 21.7701 107.36 22.5195 107.679 23.145C107.999 23.764 108.445 24.2397 109.019 24.572C109.592 24.8978 110.264 25.0607 111.033 25.0607C111.548 25.0607 112.014 24.9891 112.431 24.8457C112.848 24.6958 113.21 24.4776 113.516 24.1908C113.823 23.9041 114.054 23.549 114.211 23.1255L117.515 23.4969C117.307 24.37 116.909 25.1324 116.322 25.784C115.742 26.4291 114.999 26.9308 114.093 27.2892C113.187 27.6411 112.151 27.817 110.984 27.817Z" fill="#0A84FF"/>
<path d="M121.758 27.5238V12.5108H125.141V15.0619H125.317C125.629 14.2017 126.148 13.5306 126.871 13.0484C127.595 12.5597 128.458 12.3153 129.462 12.3153C130.479 12.3153 131.336 12.563 132.034 13.0582C132.738 13.5469 133.233 14.2148 133.52 15.0619H133.676C134.009 14.2278 134.569 13.5632 135.358 13.0679C136.153 12.5662 137.095 12.3153 138.184 12.3153C139.565 12.3153 140.693 12.7519 141.567 13.6251C142.44 14.4982 142.877 15.7721 142.877 17.4467V27.5238H139.328V17.9941C139.328 17.0623 139.08 16.3814 138.584 15.9513C138.089 15.5147 137.483 15.2964 136.766 15.2964C135.912 15.2964 135.244 15.5636 134.762 16.0979C134.286 16.6257 134.048 17.3132 134.048 18.1602V27.5238H130.577V17.8475C130.577 17.0721 130.342 16.453 129.873 15.9904C129.41 15.5278 128.804 15.2964 128.054 15.2964C127.546 15.2964 127.083 15.4268 126.666 15.6874C126.249 15.9415 125.916 16.3032 125.669 16.7723C125.421 17.235 125.297 17.7758 125.297 18.3948V27.5238H121.758Z" fill="#0A84FF"/>
<path d="M147.725 27.5238V7.50649H151.265V14.9934H151.411C151.594 14.6285 151.851 14.2408 152.184 13.8303C152.516 13.4133 152.966 13.0582 153.533 12.7649C154.1 12.4652 154.824 12.3153 155.704 12.3153C156.864 12.3153 157.91 12.6118 158.842 13.2048C159.781 13.7912 160.524 14.6611 161.071 15.8145C161.625 16.9613 161.902 18.3688 161.902 20.0369C161.902 21.6854 161.632 23.0864 161.091 24.2397C160.55 25.3931 159.813 26.2727 158.881 26.8787C157.949 27.4847 156.893 27.7877 155.713 27.7877C154.853 27.7877 154.139 27.6444 153.572 27.3576C153.005 27.0709 152.549 26.7256 152.203 26.3216C151.864 25.9111 151.6 25.5234 151.411 25.1585H151.206V27.5238H147.725ZM151.196 20.0173C151.196 20.9882 151.333 21.8386 151.607 22.5684C151.887 23.2981 152.288 23.8683 152.81 24.2788C153.337 24.6828 153.976 24.8848 154.726 24.8848C155.508 24.8848 156.163 24.6763 156.691 24.2593C157.219 23.8357 157.617 23.2591 157.884 22.5293C158.158 21.7929 158.295 20.9556 158.295 20.0173C158.295 19.0855 158.161 18.258 157.894 17.5347C157.627 16.8114 157.229 16.2445 156.701 15.834C156.173 15.4235 155.515 15.2182 154.726 15.2182C153.97 15.2182 153.328 15.417 152.8 15.8145C152.272 16.2119 151.871 16.7691 151.597 17.4858C151.33 18.2026 151.196 19.0464 151.196 20.0173Z" fill="#0A84FF"/>
<path d="M172.661 27.817C171.156 27.817 169.855 27.5043 168.76 26.8787C167.672 26.2467 166.834 25.354 166.247 24.2006C165.661 23.0408 165.367 21.6757 165.367 20.1053C165.367 18.561 165.661 17.2056 166.247 16.0393C166.841 14.8664 167.668 13.9541 168.731 13.3025C169.793 12.6444 171.042 12.3153 172.476 12.3153C173.401 12.3153 174.275 12.4652 175.096 12.7649C175.924 13.0582 176.654 13.5143 177.286 14.1333C177.925 14.7523 178.427 15.5408 178.792 16.4986C179.157 17.45 179.339 18.5838 179.339 19.9V20.9849H167.03V18.6001H175.947C175.94 17.9224 175.793 17.3197 175.507 16.7919C175.22 16.2576 174.819 15.8373 174.304 15.531C173.796 15.2248 173.202 15.0716 172.525 15.0716C171.801 15.0716 171.165 15.2476 170.618 15.5994C170.07 15.9448 169.643 16.4009 169.337 16.9678C169.037 17.5282 168.884 18.144 168.878 18.8151V20.897C168.878 21.7701 169.037 22.5195 169.357 23.145C169.676 23.764 170.123 24.2397 170.696 24.572C171.27 24.8978 171.941 25.0607 172.71 25.0607C173.225 25.0607 173.691 24.9891 174.108 24.8457C174.526 24.6958 174.887 24.4776 175.194 24.1908C175.5 23.9041 175.732 23.549 175.888 23.1255L179.193 23.4969C178.984 24.37 178.587 25.1324 178 25.784C177.42 26.4291 176.677 26.9308 175.771 27.2892C174.865 27.6411 173.828 27.817 172.661 27.817Z" fill="#0A84FF"/>
<path d="M183.435 27.5238V12.5108H186.867V15.013H187.023C187.297 14.1464 187.766 13.4785 188.431 13.0093C189.103 12.5336 189.869 12.2958 190.729 12.2958C190.924 12.2958 191.143 12.3056 191.384 12.3251C191.632 12.3381 191.837 12.361 192 12.3935V15.6483C191.85 15.5962 191.612 15.5506 191.286 15.5115C190.967 15.4659 190.657 15.443 190.357 15.443C189.712 15.443 189.132 15.5831 188.617 15.8633C188.109 16.137 187.708 16.5182 187.414 17.0069C187.121 17.4956 186.974 18.0592 186.974 18.6978V27.5238H183.435Z" fill="#0A84FF"/>
<path d="M16.288 25.9048V11.7749H19.6192V25.9048H16.288ZM17.9628 9.76948C17.4352 9.76948 16.9812 9.5947 16.6008 9.24513C16.2205 8.88943 16.0303 8.4632 16.0303 7.96645C16.0303 7.46356 16.2205 7.03734 16.6008 6.68777C16.9812 6.33207 17.4352 6.15422 17.9628 6.15422C18.4965 6.15422 18.9505 6.33207 19.3247 6.68777C19.7051 7.03734 19.8953 7.46356 19.8953 7.96645C19.8953 8.4632 19.7051 8.88943 19.3247 9.24513C18.9505 9.5947 18.4965 9.76948 17.9628 9.76948Z" fill="#0A84FF"/>
<path d="M10.6893 0H24.9418C30.8369 0 35.6311 4.81547 35.6311 10.7368V32.2105C35.6311 32.6851 35.4434 33.1403 35.1093 33.4759C34.7752 33.8115 34.322 34 33.8495 34H10.6893C4.79416 34 0 29.1845 0 23.2632V10.7368C0 4.81547 4.79416 0 10.6893 0ZM3.56311 23.2632C3.56311 27.2107 6.75922 30.4211 10.6893 30.4211H32.068V10.7368C32.068 6.78926 28.8719 3.57895 24.9418 3.57895H10.6893C6.75922 3.57895 3.56311 6.78926 3.56311 10.7368V23.2632Z" fill="#0A84FF"/>
</svg>
