<svg width="23" height="19" viewBox="0 0 23 19" fill="none" xmlns="http://www.w3.org/2000/svg">
<path opacity="0.1" d="M23 14.636C23 15.934 22.5741 16.9859 21.7222 17.7915C20.8704 18.5972 19.7582 19 18.3858 19C17.0607 19 15.9486 18.5524 15.0494 17.6572C14.1502 16.7173 13.7006 15.3969 13.7006 13.6961C13.7006 11.9953 14.2922 9.93639 15.4753 7.51944C16.7058 5.10247 18.5278 2.596 20.9414 0L22.5741 1.34276C20.965 3.1331 19.8529 4.76678 19.2377 6.24382C18.6224 7.67609 18.2675 8.99647 18.1728 10.2049H18.3858C19.7582 10.2049 20.8704 10.6078 21.7222 11.4134C22.5741 12.2191 23 13.2933 23 14.636ZM9.29938 14.636C9.29938 15.934 8.87346 16.9859 8.02161 17.7915C7.16975 18.5972 6.05761 19 4.68519 19C3.36008 19 2.24794 18.5524 1.34877 17.6572C0.449589 16.7173 0 15.3969 0 13.6961C0 11.9953 0.591564 9.93639 1.77469 7.51944C3.00514 5.10247 4.82716 2.596 7.24074 0L8.87346 1.34276C7.2644 3.1331 6.15226 4.76678 5.53704 6.24382C4.92181 7.67609 4.56687 8.99647 4.47222 10.2049H4.68519C6.05761 10.2049 7.16975 10.6078 8.02161 11.4134C8.87346 12.2191 9.29938 13.2933 9.29938 14.636Z" fill="black"/>
</svg>
